<svg width="41" height="76" viewBox="0 0 41 76" fill="none" xmlns="http://www.w3.org/2000/svg">
<path d="M13.3886 1.6434C16.8691 -0.252758 21.1609 -0.481452 24.8814 0.819662C25.486 1.08166 26.1883 1.25707 26.6572 1.73222C25.9994 6.31054 25.3393 10.8977 24.6125 15.4672C28.3197 16.5773 31.5913 19.0086 33.7072 22.2436C34.8584 23.9577 35.6941 25.8605 36.3409 27.8144C36.8498 27.9854 37.4122 27.8544 37.9433 27.8788C38.3634 30.4211 38.4056 33.0633 37.6989 35.5589C37.6322 36.5936 37.7722 37.646 37.71 38.6896C38.6923 40.0595 39.4613 41.5694 40.0703 43.1391C38.5279 44.6645 36.8543 46.1277 35.6852 47.9684C35.1251 48.821 34.4428 49.5936 33.9739 50.5106C33.8916 49.8823 34.2428 49.3006 34.1895 48.6722C34.1628 48.0039 34.0672 47.3356 33.8983 46.6894C33.8361 46.5718 33.7094 46.3364 33.6472 46.2187C33.416 44.7689 32.9982 43.3101 32.2225 42.0534C32.7915 41.3051 33.2693 40.4903 33.8605 39.7576C32.7581 38.7473 32.0758 37.3086 32.0336 35.8121C32.4381 35.2836 33.0182 34.8618 33.236 34.2134C32.5603 34.6375 31.9958 35.2103 31.4068 35.7432C31.0201 36.2517 30.8979 36.9045 30.6045 37.4662C30.18 37.464 29.7577 37.464 29.3354 37.4595C28.9909 37.7482 28.6486 38.039 28.313 38.3388C27.3485 37.7393 26.2861 37.3308 25.3193 36.7424C25.6438 36.1229 26.2572 35.59 26.275 34.8529C24.9437 34.3489 23.6768 33.7005 22.3655 33.1477C23.2367 34.0713 24.3613 34.6974 25.317 35.5279C24.8814 36.3605 24.388 37.1842 24.1302 38.0946C25.2126 38.301 26.2527 38.694 27.244 39.1692C25.6215 40.6235 23.8857 41.949 22.2166 43.3456C22.0232 44.891 22.5611 46.4563 22.4411 48.0239C22.47 48.8942 22.5189 49.7802 22.3277 50.6394C21.8454 51.2211 21.1342 51.5586 20.5475 52.0271C20.2585 52.3535 19.8762 52.4468 19.5806 52.0804C19.0717 51.683 18.5338 51.3255 18.0071 50.9525C17.9226 50.8725 17.7537 50.7105 17.667 50.6283C17.4248 48.5345 17.7204 46.4386 17.8737 44.3514L18.1982 44.3403C18.3382 45.597 17.9693 46.8204 17.9471 48.0727C19.1428 48.3902 19.7496 49.7402 19.574 50.897C19.594 51.2544 19.3473 51.7407 19.7607 51.9583C20.0985 52.0138 20.3897 51.8073 20.6875 51.6807C20.463 50.3619 20.6141 48.6411 22.0677 48.1038C22.0788 47.9573 22.0988 47.6664 22.1099 47.5221C21.5409 47.8995 20.9564 48.3036 20.6208 48.9187C20.0163 49.7735 20.2674 50.8659 20.0185 51.8317C19.9407 50.8304 20.1252 49.7135 19.5117 48.8432C19.1673 48.2681 18.5694 47.9373 18.0693 47.5199C18.1671 46.1455 18.5227 44.7134 17.9782 43.3745C15.6045 41.6093 13.3931 39.6332 11.1061 37.7593C10.6727 37.2997 10.0192 37.4706 9.46361 37.4662C9.17912 36.8911 9.04577 36.2317 8.66349 35.7121C8.0434 35.1948 7.46776 34.6064 6.76766 34.1934C7.1166 34.8484 7.75669 35.3191 8.05451 35.9941C7.90338 37.3752 7.34552 38.7695 6.23647 39.6621C7.37664 41.5427 8.70572 43.3701 10.4726 44.7134C9.96591 45.1152 9.3636 45.4105 8.94353 45.9079C8.8124 46.4496 8.79462 47.0114 8.73906 47.5643C8.1123 47.6042 7.48332 47.602 6.85878 47.5598C6.88101 46.6672 6.86545 45.7747 6.81878 44.8843C5.95198 44.7067 5.15631 45.2018 4.534 45.748C4.31397 46.3231 4.41842 46.987 4.34064 47.5976C3.88946 47.38 3.66276 46.9159 3.34494 46.5585C2.287 45.3661 1.18906 44.2093 0 43.1458C0.613423 41.5516 1.41354 40.0351 2.38924 38.6341C2.5137 37.706 2.42036 36.7357 2.44258 35.7921C1.68247 33.2276 1.64913 30.4988 2.1492 27.881C2.67595 27.8921 3.20269 27.8921 3.72721 27.8877C5.0274 23.5403 7.71669 19.4682 11.6839 17.1369C12.8486 16.3842 14.1687 15.9445 15.4534 15.445C14.7333 10.8489 14.0732 6.24393 13.3886 1.6434ZM13.602 1.76774C14.1665 3.03777 14.9333 4.22343 15.32 5.57339C17.0803 11.475 17.467 17.6675 17.8315 23.7756C17.9449 25.9316 17.8359 28.1053 18.2293 30.239C18.6894 23.678 18.0915 17.0791 16.8936 10.6202C16.3713 8.08014 15.8223 5.51788 14.8088 3.11992C14.4977 2.60703 14.3465 1.7633 13.602 1.76774ZM25.5526 2.5382C24.3391 5.03163 23.7613 7.76929 23.1945 10.467C22.7322 13.1247 22.2877 15.7913 22.0966 18.4868C21.572 22.4523 21.6543 26.4578 21.7832 30.4477C22.181 29.3176 22.0721 28.0942 22.1277 26.9174C22.261 22.5278 22.5811 18.1471 23.07 13.7842C23.5501 10.447 24.0969 7.07877 25.3704 3.93478C25.6526 3.15989 26.3394 2.5604 26.4194 1.71445C26.0149 1.84767 25.7193 2.1563 25.5526 2.5382ZM16.2935 19.4083C15.9912 20.1165 15.6756 20.8204 15.4489 21.5575C15.2867 21.5886 14.9622 21.6552 14.7999 21.6863C14.9133 21.8173 15.0266 21.9505 15.14 22.086C14.1687 23.809 12.8219 25.3721 11.0149 26.2424C9.64808 27.004 8.08119 27.1728 6.56541 27.3837C7.24773 27.4614 7.93672 27.4769 8.62126 27.5347C8.06563 28.0165 7.29885 27.8389 6.62986 27.9077C7.30996 27.8788 7.99228 27.961 8.67016 27.941C8.68127 27.7611 8.67016 27.5813 8.68127 27.4014C9.94368 27.2704 11.1705 26.8264 12.2173 26.107C14.211 24.737 15.4 22.5056 16.0735 20.2364C16.1668 19.9678 16.2335 19.688 16.2935 19.4083ZM24.1791 20.6761C24.7347 22.7543 25.9571 24.6616 27.6685 25.976C29.3776 27.2127 31.5868 27.7301 33.6672 27.3681C31.7602 27.2194 29.791 26.8663 28.193 25.7451C25.9749 24.3796 24.7747 21.9528 23.8702 19.6103C23.7924 19.99 24.1124 20.3142 24.1791 20.6761ZM2.62261 35.1815C2.74262 35.2969 2.74262 35.2969 2.62261 35.1815V35.1815ZM34.1317 46.3209C34.165 46.4652 34.2295 46.7583 34.2628 46.9048C34.2406 46.1233 34.2183 45.2995 33.8183 44.6046C33.6449 45.1685 33.8561 45.8146 34.1317 46.3209ZM34.3361 47.5221C34.3517 47.6153 34.3828 47.8041 34.3961 47.8973C34.674 47.9528 34.9473 48.0261 35.2163 48.1149C35.3207 47.9084 35.4274 47.7041 35.5385 47.5021C35.1363 47.5065 34.7362 47.511 34.3361 47.5221Z" fill="#FE0036"/>
<path d="M27.233 45.6413C29.0133 45.5192 30.3468 44.1781 31.5137 42.9658C31.9182 43.7674 32.6694 44.4357 32.7205 45.3704L32.5916 45.1839L32.516 45.0374C32.3116 45.2972 32.0626 45.517 31.8026 45.7213C31.6981 46.2874 31.6248 46.8603 31.5714 47.4376C31.2381 47.5974 30.9069 47.7617 30.5757 47.926C29.1844 47.4354 27.6309 47.1423 26.2084 47.6885C25.8462 47.7773 25.755 48.188 25.5728 48.4589L25.5483 48.5055C24.6949 47.3465 23.7303 46.2741 22.8657 45.124C23.2013 44.691 23.5036 44.2336 23.777 43.7585C24.9838 44.2803 25.8795 45.4748 27.233 45.6413Z" fill="#FE0036"/>
<path d="M13.4219 45.5128C14.4665 45.0932 15.2755 44.2761 16.2401 43.7166C16.549 44.2006 16.8713 44.6735 17.1958 45.1487C16.5623 45.9902 15.8845 46.7984 15.1999 47.5999C15.1644 47.6443 15.0932 47.7354 15.0577 47.7798C14.9488 47.7465 14.731 47.6821 14.6221 47.6488C14.1353 48.135 13.6641 48.639 13.2241 49.1675C13.0707 48.7012 13.3219 47.8086 12.7418 47.6621C12.2106 47.6332 11.6794 47.651 11.1482 47.6488C11.1349 46.8472 11.1749 46.0457 11.1815 45.2464C11.9039 45.4329 12.6773 45.8392 13.4219 45.5128Z" fill="#FE0036"/>
<path d="M4.8074 46.252C5.16967 45.6791 5.83422 45.4194 6.40097 45.0974C6.49653 46.0344 6.44319 46.9803 6.56099 47.915C7.42778 47.8928 8.2968 47.8906 9.16582 47.9083C9.16359 47.2689 9.16804 46.6317 9.17693 45.9944C9.73924 45.6902 10.3127 45.4083 10.8994 45.1574C10.9305 45.9878 10.6883 46.8892 11.0861 47.6663L11.0817 47.7463L11.0728 47.9017C11.644 47.8995 12.2152 47.9017 12.7863 47.9061C12.8152 48.3835 12.8641 48.8631 12.8397 49.3427C12.2685 49.6735 11.5106 49.4515 10.8638 49.4382C11.0239 50.7948 10.4971 52.309 11.2328 53.5435C11.335 53.7412 11.3261 53.9432 11.2106 54.1519C11.0794 54.6115 10.9928 55.0822 10.9239 55.5552C10.8127 56.8163 11.0061 58.073 11.1483 59.3253C11.6506 62.2583 12.4107 65.1381 13.1686 68.0134C13.9176 70.669 14.5511 73.3555 15.3556 75.9933C11.7929 70.629 8.36125 65.1692 4.86296 59.7605C4.80073 58.859 5.44305 58.0064 5.26746 57.0961C4.92519 55.2021 4.73183 53.2882 4.54736 51.3765C4.5607 50.2175 4.52958 49.0585 4.43179 47.9039L4.24731 47.6752L4.34066 47.5975C4.44512 47.6486 4.65849 47.7529 4.76517 47.804C4.76072 47.2911 4.63182 46.7471 4.8074 46.252ZM4.81629 48.4368C5.10744 50.1842 5.86978 51.8272 6.14759 53.588C6.17649 53.4836 6.23872 53.2727 6.26984 53.1661C6.71435 53.8078 7.46556 54.0675 8.21234 54.1364C8.18789 54.6315 8.16789 55.1289 8.15456 55.6262C7.06773 55.8438 6.05869 55.3664 5.22746 54.7048C5.24079 54.9979 5.0541 55.4641 5.4675 55.5707C6.39208 56.0836 7.4789 56.0237 8.49683 55.9437C8.49905 55.2443 8.56351 54.5405 8.47905 53.8455C8.14122 53.4614 7.53002 53.7367 7.13441 53.4459C6.84103 53.0329 7.04995 52.4134 6.64322 52.0692C6.66989 51.9982 6.72546 51.8583 6.75213 51.7873C6.09203 50.6793 5.47194 49.547 4.81629 48.4368ZM6.49876 49.7446C6.32984 50.2375 6.54099 50.7504 6.63433 51.2366C7.03439 50.9724 6.81214 50.4129 6.87659 50.0154C7.52113 49.8911 8.179 49.9089 8.83021 49.9444C8.75242 51.2166 8.82354 52.4956 8.88133 53.7678C8.92134 54.6915 9.68589 55.3354 10.386 55.8283C10.4016 56.4011 10.4104 56.974 10.446 57.5468C10.5016 56.8652 10.5193 56.1835 10.586 55.5041C10.0059 54.9557 9.28361 54.4139 9.20805 53.5546C9.10359 52.2424 9.19026 50.9213 9.18137 49.6047C8.30347 49.5381 7.30332 49.2894 6.49876 49.7446ZM12.1574 65.8153C11.7662 66.4437 12.8953 65.9063 12.1574 65.8153V65.8153Z" fill="#FE0036"/>
<path d="M32.7269 45.546L32.6669 45.3706C33.3203 45.5571 33.3292 46.3542 33.5403 46.8893C33.7359 47.7175 34.0338 48.5257 34.0849 49.3827C33.896 49.7491 33.7248 50.1554 33.8982 50.5662C33.4559 51.4654 33.467 52.4734 33.7582 53.4171C34.1582 53.588 34.5561 53.7657 34.9517 53.9477C34.9517 53.8944 34.9517 53.7879 34.9495 53.7346C34.6361 53.6524 34.3227 53.5658 34.0115 53.477C34.3071 51.8562 34.8272 50.2864 35.3051 48.7166L35.5562 48.4369C35.5606 48.6123 35.5673 48.9631 35.5718 49.1363C35.5162 51.33 35.3695 53.5192 35.0806 55.6929C34.1271 55.6152 32.8891 55.5353 32.4313 54.5339C31.6645 53.0529 32.2268 51.3122 32.0157 49.718C31.7134 49.6048 31.4112 49.4893 31.1089 49.3761C31.1444 48.912 31.18 48.448 31.2178 47.9862C31.4778 47.9373 31.7379 47.8907 31.9979 47.844C32.0957 47.0914 31.7512 45.868 32.7713 45.6681L32.7269 45.546Z" fill="#FE0036"/>
<path d="M25.5725 48.4592C26.1126 48.2305 26.6327 47.9019 27.2283 47.8486C28.3374 47.7842 29.5398 47.7376 30.4888 48.417C30.3043 48.9232 30.1087 49.4272 29.8998 49.9246C28.9175 49.3673 27.5439 49.0475 26.5771 49.8025C26.2326 49.3628 25.9037 48.9099 25.5725 48.4592Z" fill="#FE0036"/>
<path d="M30.6824 48.8608C30.7824 49.1739 30.8824 49.4892 30.9824 49.8045C31.1913 49.8844 31.4025 49.9643 31.6136 50.0465C31.6292 51.4564 31.6158 52.8863 31.8559 54.2784C32.1715 55.3953 33.3072 55.8238 34.3296 56.0547C34.474 55.9837 34.7652 55.846 34.9096 55.7749C34.8852 56.3034 34.8074 56.8274 34.7563 57.3558C34.8585 58.1241 35.0941 58.8723 35.2964 59.6228C32.1092 64.5874 28.9221 69.5543 25.7216 74.5123C25.4038 75.0185 25.1082 75.5425 24.717 75.9999C25.3727 73.8173 25.9239 71.6059 26.5306 69.41C27.3485 66.286 28.2198 63.1731 28.8088 59.9958C29.0777 58.3772 29.3199 56.7208 29.0755 55.0822C28.9843 54.5005 28.8643 53.9232 28.7043 53.357C28.5732 53.0395 28.4042 52.7398 28.2464 52.4356C27.9486 51.8383 27.6041 51.2632 27.2663 50.6882C28.2598 50.8036 29.271 51.0212 30.1512 51.5097C30.9135 52.2224 30.6846 53.3481 30.7402 54.2784C30.3957 54.6648 30.0289 55.0311 29.6155 55.3464C29.4622 56.2834 29.5466 57.2337 29.5155 58.1773L29.6355 58.1818C29.6 57.3247 29.5378 56.4566 29.7044 55.6084C29.9845 54.9934 30.7957 54.6892 30.8646 53.9609C30.9113 53.0728 30.9068 51.9382 30.0845 51.3787C29.2288 50.9102 28.2553 50.6993 27.2952 50.5749C27.0063 50.3684 26.8085 50.062 26.5773 49.8023C26.8862 49.8333 27.1996 49.8733 27.5108 49.8289C28.442 49.6424 29.3044 50.1819 30.2312 50.1908C30.3757 49.7467 30.5268 49.3027 30.6824 48.8608Z" fill="#FE0036"/>
<path d="M11.3214 50.0444C11.9304 49.7447 12.7016 49.9245 13.3751 49.9334L13.2995 50.0333C12.7928 50.7416 12.326 51.481 11.9149 52.2514C11.6815 52.6777 11.6037 53.1995 11.2325 53.5437C11.4192 52.3824 11.2125 51.2079 11.3214 50.0444Z" fill="#FE0036"/>
</svg>
