<svg width="15" height="15" fill="none" xmlns="http://www.w3.org/2000/svg"><g filter="url(#a)" clip-path="url(#b)"><path d="M7.498 4.999A2.506 2.506 0 0 0 4.997 7.5a2.506 2.506 0 0 0 2.501 2.501A2.506 2.506 0 0 0 9.999 7.5a2.506 2.506 0 0 0-2.501-2.501ZM14.999 7.5c0-1.036.01-2.062-.049-3.096-.058-1.2-.332-2.266-1.21-3.144C12.86.38 11.796.108 10.596.05 9.56-.01 8.534 0 7.5 0 6.464 0 5.438-.008 4.404.05c-1.2.057-2.266.33-3.144 1.21C.38 2.14.108 3.203.05 4.404-.01 5.44 0 6.466 0 7.5c0 1.034-.009 2.062.05 3.096.058 1.2.331 2.266 1.21 3.145.88.88 1.943 1.152 3.144 1.21 1.036.058 2.062.048 3.096.048 1.036 0 2.062.01 3.096-.048 1.2-.059 2.266-.332 3.144-1.21.88-.88 1.152-1.944 1.21-3.145.06-1.034.05-2.06.05-3.096Zm-7.501 3.848A3.843 3.843 0 0 1 3.65 7.5a3.843 3.843 0 0 1 3.848-3.848A3.843 3.843 0 0 1 11.346 7.5a3.843 3.843 0 0 1-3.848 3.848Zm4.006-6.955a.898.898 0 1 1 0-1.798.898.898 0 1 1 0 1.798Z" fill="url(#c)"/></g><defs><linearGradient id="c" x1="0" y1="7.5" x2="15.004" y2="7.57" gradientUnits="userSpaceOnUse"><stop stop-color="#FE0036"/><stop offset="1" stop-color="#980823"/></linearGradient><clipPath id="b"><path fill="#fff" d="M0 0h15v15H0z"/></clipPath><filter id="a" x="-35" y="-35" width="85" height="85" filterUnits="userSpaceOnUse" color-interpolation-filters="sRGB"><feFlood flood-opacity="0" result="BackgroundImageFix"/><feColorMatrix in="SourceAlpha" values="0 0 0 0 0 0 0 0 0 0 0 0 0 0 0 0 0 0 127 0" result="hardAlpha"/><feOffset/><feGaussianBlur stdDeviation="17.5"/><feColorMatrix values="0 0 0 0 0.996078 0 0 0 0 0 0 0 0 0 0.211765 0 0 0 0.3 0"/><feBlend in2="BackgroundImageFix" result="effect1_dropShadow_9_532"/><feBlend in="SourceGraphic" in2="effect1_dropShadow_9_532" result="shape"/></filter></defs></svg>