<svg width="41" height="76" fill="none" xmlns="http://www.w3.org/2000/svg"><path d="M13.389 1.643C16.869-.253 21.16-.48 24.88.82c.605.262 1.307.437 1.776.912-.658 4.579-1.318 9.166-2.044 13.735a16.65 16.65 0 0 1 9.094 6.777c1.151 1.714 1.987 3.616 2.634 5.57.509.171 1.071.04 1.602.065.42 2.542.463 5.184-.244 7.68-.067 1.035.073 2.087.011 3.13.982 1.37 1.751 2.88 2.36 4.45-1.542 1.525-3.216 2.989-4.385 4.83-.56.852-1.242 1.625-1.711 2.542-.082-.629.269-1.21.216-1.839a9.33 9.33 0 0 0-.292-1.983c-.062-.117-.189-.353-.25-.47-.232-1.45-.65-2.909-1.426-4.166.57-.748 1.047-1.563 1.639-2.295-1.103-1.01-1.785-2.45-1.827-3.946.404-.528.984-.95 1.202-1.599-.676.425-1.24.997-1.83 1.53-.386.509-.508 1.161-.801 1.723-.425-.002-.847-.002-1.27-.007-.344.29-.686.58-1.022.88-.964-.6-2.027-1.008-2.994-1.597.325-.62.938-1.152.956-1.89-1.331-.503-2.598-1.151-3.91-1.704.872.923 1.996 1.55 2.952 2.38-.436.833-.929 1.656-1.187 2.567 1.083.206 2.123.599 3.114 1.074-1.622 1.455-3.358 2.78-5.027 4.177-.194 1.545.344 3.11.224 4.678.029.87.078 1.756-.113 2.615-.483.582-1.194.92-1.78 1.388-.29.326-.672.42-.967.053-.51-.397-1.047-.755-1.574-1.127l-.34-.325c-.242-2.093.053-4.19.207-6.277l.324-.01c.14 1.256-.229 2.48-.25 3.732 1.195.317 1.802 1.667 1.626 2.824.02.357-.227.844.187 1.061.338.056.629-.15.927-.277-.225-1.32-.074-3.04 1.38-3.577.01-.147.03-.438.042-.582-.57.378-1.154.782-1.49 1.397-.604.855-.353 1.947-.602 2.913-.077-1.002.107-2.118-.506-2.989-.345-.575-.943-.906-1.443-1.323.098-1.375.454-2.807-.09-4.146-2.374-1.765-4.586-3.74-6.873-5.615-.433-.46-1.087-.288-1.642-.293-.285-.575-.418-1.234-.8-1.754-.62-.517-1.196-1.106-1.896-1.519.349.655.989 1.126 1.287 1.801-.152 1.381-.71 2.776-1.819 3.668 1.14 1.88 2.47 3.708 4.237 5.051-.507.402-1.11.697-1.53 1.195-.13.542-.148 1.103-.204 1.656-.627.04-1.256.038-1.88-.004a34.64 34.64 0 0 0-.04-2.676c-.867-.177-1.663.318-2.285.864-.22.575-.116 1.239-.193 1.85-.452-.218-.678-.682-.996-1.04C2.287 45.367 1.189 44.21 0 43.147a21.238 21.238 0 0 1 2.39-4.512c.124-.928.03-1.898.053-2.842-.76-2.564-.794-5.293-.294-7.911.527.011 1.054.011 1.578.007 1.3-4.348 3.99-8.42 7.957-10.751 1.165-.753 2.485-1.193 3.77-1.692-.72-4.596-1.38-9.201-2.065-13.802Zm.213.125c.564 1.27 1.331 2.455 1.718 3.805 1.76 5.902 2.147 12.095 2.511 18.203.114 2.156.005 4.33.398 6.463.46-6.561-.137-13.16-1.335-19.619-.523-2.54-1.072-5.102-2.085-7.5-.311-.513-.462-1.357-1.207-1.352Zm11.95.77c-1.213 2.494-1.79 5.231-2.357 7.929-.463 2.658-.907 5.324-1.098 8.02-.525 3.965-.443 7.97-.314 11.96.398-1.13.29-2.353.345-3.53.133-4.39.453-8.77.942-13.133.48-3.337 1.027-6.705 2.3-9.85.283-.774.97-1.374 1.05-2.22-.405.134-.7.442-.867.824Zm-9.258 16.87c-.303.708-.618 1.412-.845 2.15-.162.03-.487.097-.65.128.114.131.228.265.341.4-.971 1.723-2.318 3.286-4.125 4.156-1.367.762-2.934.93-4.45 1.142.683.077 1.372.093 2.056.15-.555.483-1.322.305-1.991.374.68-.03 1.362.053 2.04.033.011-.18 0-.36.011-.54a7.66 7.66 0 0 0 3.536-1.294c1.994-1.37 3.183-3.601 3.856-5.87.094-.27.16-.549.22-.829Zm7.885 1.268c.556 2.078 1.778 3.986 3.49 5.3a8.01 8.01 0 0 0 5.998 1.392c-1.907-.149-3.876-.502-5.474-1.623-2.218-1.365-3.418-3.792-4.323-6.135-.078.38.242.704.31 1.066ZM2.623 35.182c.12.115.12.115 0 0ZM34.132 46.32l.13.584c-.021-.782-.044-1.605-.444-2.3-.173.564.038 1.21.314 1.716Zm.204 1.201c.016.093.047.282.06.375.278.056.551.13.82.218.105-.207.211-.41.322-.613-.402.005-.802.009-1.202.02Z" fill="#FE0036"/><path d="M27.233 45.641c1.78-.122 3.114-1.463 4.28-2.675.405.801 1.156 1.47 1.207 2.404l-.128-.186-.076-.147a4.16 4.16 0 0 1-.713.684 19.184 19.184 0 0 0-.232 1.717c-.333.16-.664.324-.995.488-1.392-.49-2.945-.784-4.368-.238-.362.09-.453.5-.635.77l-.025.047c-.853-1.159-1.818-2.23-2.682-3.381.335-.433.638-.89.911-1.366 1.207.522 2.102 1.717 3.456 1.883Zm-13.811-.128c1.044-.42 1.853-1.237 2.818-1.796.309.484.631.956.956 1.432a51.346 51.346 0 0 1-1.996 2.45l-.142.18-.436-.13c-.487.486-.958.99-1.398 1.518-.153-.466.098-1.358-.482-1.505-.531-.029-1.063-.011-1.594-.013-.013-.802.027-1.603.034-2.403.722.187 1.495.593 2.24.267Z" fill="#FE0036"/><path d="M4.807 46.252c.363-.573 1.027-.833 1.594-1.155.096.937.042 1.883.16 2.818a56.684 56.684 0 0 1 2.605-.007c-.002-.64.002-1.276.01-1.914a20.873 20.873 0 0 1 1.723-.837c.032.83-.21 1.732.187 2.51l-.004.08-.01.155c.572-.002 1.143 0 1.714.004.03.477.078.957.054 1.437-.572.33-1.33.108-1.976.095.16 1.357-.367 2.871.369 4.105.102.198.093.4-.022.609-.132.46-.218.93-.287 1.403-.111 1.261.082 2.518.224 3.77.503 2.933 1.263 5.813 2.02 8.688.75 2.656 1.383 5.343 2.188 7.98C11.793 70.63 8.36 65.17 4.863 59.761c-.062-.902.58-1.755.404-2.665-.342-1.894-.535-3.808-.72-5.72a36.204 36.204 0 0 0-.115-3.472l-.185-.229.094-.078c.104.052.317.156.424.207-.004-.513-.133-1.057.042-1.552Zm.01 2.185c.29 1.747 1.053 3.39 1.33 5.151l.123-.422c.444.642 1.196.902 1.942.97a66.96 66.96 0 0 0-.057 1.49c-1.087.218-2.096-.26-2.928-.921.014.293-.173.76.24.866.925.513 2.012.453 3.03.373.002-.7.067-1.404-.018-2.099-.338-.384-.949-.108-1.345-.4-.293-.412-.084-1.032-.49-1.376l.108-.282c-.66-1.108-1.28-2.24-1.936-3.35Zm1.682 1.308c-.17.492.042 1.005.135 1.492.4-.265.178-.824.243-1.222.644-.124 1.302-.106 1.953-.07-.078 1.272-.006 2.55.051 3.823.04.923.805 1.567 1.505 2.06.016.573.024 1.146.06 1.719.056-.682.073-1.363.14-2.043-.58-.548-1.302-1.09-1.378-1.95-.104-1.312-.018-2.633-.027-3.95-.878-.066-1.878-.315-2.682.14Zm5.658 16.07c-.39.629.738.091 0 0Zm20.57-20.269-.06-.175c.653.186.662.983.873 1.518.196.828.494 1.637.545 2.494-.189.366-.36.772-.187 1.183-.442.9-.431 1.907-.14 2.851.4.171.798.349 1.194.53 0-.053 0-.16-.002-.212a45.402 45.402 0 0 1-.939-.258c.296-1.62.816-3.19 1.294-4.76l.251-.28c.005.175.011.526.016.7a61.588 61.588 0 0 1-.491 6.556c-.954-.078-2.192-.158-2.65-1.16-.766-1.48-.204-3.22-.415-4.815-.303-.113-.605-.229-.907-.342.035-.464.071-.928.109-1.39.26-.049.52-.095.78-.142.098-.753-.247-1.976.773-2.176l-.044-.122Zm-7.154 2.914c.54-.23 1.06-.558 1.655-.611 1.11-.065 2.312-.111 3.26.568-.184.506-.38 1.01-.588 1.508-.982-.558-2.356-.877-3.323-.122-.344-.44-.673-.893-1.005-1.344Z" fill="#FE0036"/><path d="m30.682 48.86.3.944.632.242c.015 1.41.002 2.84.242 4.232.316 1.117 1.451 1.546 2.474 1.777.144-.071.435-.209.58-.28-.025.528-.103 1.052-.154 1.58.102.77.338 1.517.54 2.268-3.187 4.964-6.374 9.931-9.574 14.89-.318.505-.614 1.03-1.005 1.487.656-2.183 1.207-4.394 1.814-6.59.818-3.124 1.689-6.237 2.278-9.414.269-1.619.51-3.275.267-4.914a14.733 14.733 0 0 0-.372-1.725c-.13-.318-.3-.617-.458-.921-.297-.598-.642-1.173-.98-1.748.994.116 2.005.333 2.885.822.762.712.534 1.838.59 2.768a8.118 8.118 0 0 1-1.125 1.068c-.154.937-.07 1.888-.1 2.831l.12.005c-.036-.857-.098-1.725.068-2.574.28-.615 1.092-.919 1.16-1.647.047-.888.043-2.023-.78-2.582-.855-.469-1.829-.68-2.789-.804-.289-.207-.487-.513-.718-.773.31.031.623.071.934.027.931-.187 1.793.353 2.72.362.145-.444.296-.888.451-1.33Zm-19.361 1.184c.61-.3 1.38-.12 2.054-.11l-.075.1a20.016 20.016 0 0 0-1.385 2.217c-.233.427-.311.949-.682 1.293.186-1.162-.02-2.336.088-3.5Z" fill="#FE0036"/></svg>