<svg width="22" height="13" fill="none" xmlns="http://www.w3.org/2000/svg"><g filter="url(#a)"><path d="M21.089 10.04c-.655-.783-1.426-1.45-2.155-2.16-.659-.638-.7-1.009-.171-1.746.577-.805 1.198-1.579 1.78-2.38.544-.749 1.1-1.495 1.386-2.392.182-.57.021-.822-.566-.922a1.822 1.822 0 0 0-.31-.018L17.569.418c-.43-.007-.667.18-.819.558a21.195 21.195 0 0 1-.66 1.518c-.554 1.12-1.173 2.203-2.04 3.12-.192.202-.403.458-.723.352-.4-.145-.518-.8-.511-1.022L12.812.938c-.078-.572-.205-.827-.776-.938H8.415c-.483 0-.726.187-.984.487-.149.174-.194.287.112.345.601.113.94.5 1.03 1.1.144.959.134 1.921.05 2.883a2.67 2.67 0 0 1-.184.824c-.175.412-.458.496-.83.243-.336-.23-.572-.554-.803-.88C5.938 3.781 5.245 2.464 4.68 1.08c-.163-.4-.445-.642-.87-.648a89.26 89.26 0 0 0-3.138 0c-.63.012-.817.316-.561.884 1.14 2.522 2.407 4.974 4.062 7.208.85 1.146 1.825 2.158 3.086 2.876 1.428.813 2.966 1.057 4.585.982.758-.036.986-.232 1.021-.984.024-.515.082-1.027.338-1.49.25-.453.63-.54 1.066-.257.219.141.403.321.577.51.427.466.838.944 1.281 1.394.556.562 1.214.895 2.042.827h3.203c.517-.033.784-.663.488-1.236-.208-.402-.481-.76-.771-1.106Z" fill="url(#b)"/></g><defs><linearGradient id="b" x1="0" y1="6.197" x2="22.005" y2="6.38" gradientUnits="userSpaceOnUse"><stop stop-color="#FE0036"/><stop offset="1" stop-color="#980823"/></linearGradient><filter id="a" x="-35" y="-35" width="92" height="82.394" filterUnits="userSpaceOnUse" color-interpolation-filters="sRGB"><feFlood flood-opacity="0" result="BackgroundImageFix"/><feColorMatrix in="SourceAlpha" values="0 0 0 0 0 0 0 0 0 0 0 0 0 0 0 0 0 0 127 0" result="hardAlpha"/><feOffset/><feGaussianBlur stdDeviation="17.5"/><feColorMatrix values="0 0 0 0 0.996078 0 0 0 0 0 0 0 0 0 0.211765 0 0 0 0.3 0"/><feBlend in2="BackgroundImageFix" result="effect1_dropShadow_0_492"/><feBlend in="SourceGraphic" in2="effect1_dropShadow_0_492" result="shape"/></filter></defs></svg>